<svg width="66" height="17" viewBox="0 0 66 17" fill="none" xmlns="http://www.w3.org/2000/svg">
<path d="M10.206 11.382C10.206 12.006 10.044 12.594 9.72 13.146C9.408 13.686 8.94 14.136 8.316 14.496C7.704 14.844 6.978 15.048 6.138 15.108V16.566H4.986V15.09C3.786 14.982 2.82 14.622 2.088 14.01C1.356 13.386 0.978 12.546 0.954 11.49H3.654C3.726 12.354 4.17 12.876 4.986 13.056V9.618C4.122 9.402 3.426 9.186 2.898 8.97C2.37 8.754 1.914 8.406 1.53 7.926C1.146 7.446 0.954 6.792 0.954 5.964C0.954 4.92 1.326 4.068 2.07 3.408C2.826 2.748 3.798 2.37 4.986 2.274V0.815999H6.138V2.274C7.29 2.37 8.208 2.718 8.892 3.318C9.588 3.918 9.978 4.746 10.062 5.802H7.344C7.308 5.454 7.182 5.154 6.966 4.902C6.762 4.638 6.486 4.452 6.138 4.344V7.746C7.038 7.974 7.746 8.196 8.262 8.412C8.79 8.616 9.246 8.958 9.63 9.438C10.014 9.906 10.206 10.554 10.206 11.382ZM3.582 5.838C3.582 6.234 3.702 6.558 3.942 6.81C4.182 7.05 4.53 7.248 4.986 7.404V4.29C4.554 4.35 4.212 4.512 3.96 4.776C3.708 5.04 3.582 5.394 3.582 5.838ZM6.138 13.092C6.594 13.008 6.948 12.822 7.2 12.534C7.464 12.246 7.596 11.898 7.596 11.49C7.596 11.094 7.47 10.776 7.218 10.536C6.966 10.296 6.606 10.098 6.138 9.942V13.092ZM12.4253 4.2V1.878H16.7633V15H14.1713V4.2H12.4253ZM20.0448 12.156C21.1968 11.196 22.1148 10.398 22.7988 9.762C23.4828 9.114 24.0528 8.442 24.5088 7.746C24.9648 7.05 25.1928 6.366 25.1928 5.694C25.1928 5.082 25.0488 4.602 24.7608 4.254C24.4728 3.906 24.0288 3.732 23.4288 3.732C22.8288 3.732 22.3668 3.936 22.0428 4.344C21.7188 4.74 21.5508 5.286 21.5388 5.982H19.0908C19.1388 4.542 19.5648 3.45 20.3688 2.706C21.1848 1.962 22.2168 1.59 23.4648 1.59C24.8328 1.59 25.8828 1.956 26.6148 2.688C27.3468 3.408 27.7128 4.362 27.7128 5.55C27.7128 6.486 27.4608 7.38 26.9568 8.232C26.4528 9.084 25.8768 9.828 25.2288 10.464C24.5808 11.088 23.7348 11.844 22.6908 12.732H28.0008V14.82H19.1088V12.948L20.0448 12.156ZM29.5888 8.268C29.5888 6.192 29.9608 4.566 30.7048 3.39C31.4608 2.214 32.7088 1.626 34.4488 1.626C36.1888 1.626 37.4308 2.214 38.1748 3.39C38.9308 4.566 39.3088 6.192 39.3088 8.268C39.3088 10.356 38.9308 11.994 38.1748 13.182C37.4308 14.37 36.1888 14.964 34.4488 14.964C32.7088 14.964 31.4608 14.37 30.7048 13.182C29.9608 11.994 29.5888 10.356 29.5888 8.268ZM36.8248 8.268C36.8248 7.38 36.7648 6.636 36.6448 6.036C36.5368 5.424 36.3088 4.926 35.9608 4.542C35.6248 4.158 35.1208 3.966 34.4488 3.966C33.7768 3.966 33.2668 4.158 32.9188 4.542C32.5828 4.926 32.3548 5.424 32.2348 6.036C32.1268 6.636 32.0728 7.38 32.0728 8.268C32.0728 9.18 32.1268 9.948 32.2348 10.572C32.3428 11.184 32.5708 11.682 32.9188 12.066C33.2668 12.438 33.7768 12.624 34.4488 12.624C35.1208 12.624 35.6308 12.438 35.9788 12.066C36.3268 11.682 36.5548 11.184 36.6628 10.572C36.7708 9.948 36.8248 9.18 36.8248 8.268ZM42.6295 15.126C42.1735 15.126 41.7955 14.988 41.4955 14.712C41.2075 14.424 41.0635 14.07 41.0635 13.65C41.0635 13.23 41.2075 12.882 41.4955 12.606C41.7955 12.318 42.1735 12.174 42.6295 12.174C43.0735 12.174 43.4395 12.318 43.7275 12.606C44.0155 12.882 44.1595 13.23 44.1595 13.65C44.1595 14.07 44.0155 14.424 43.7275 14.712C43.4395 14.988 43.0735 15.126 42.6295 15.126ZM54.2533 3.786L49.4653 15H46.9093L51.7333 4.074H45.5773V1.914H54.2533V3.786ZM64.5826 4.056H58.7506V7.134C59.0026 6.822 59.3626 6.57 59.8306 6.378C60.2986 6.174 60.7966 6.072 61.3246 6.072C62.2846 6.072 63.0706 6.282 63.6826 6.702C64.2946 7.122 64.7386 7.662 65.0146 8.322C65.2906 8.97 65.4286 9.666 65.4286 10.41C65.4286 11.79 65.0326 12.9 64.2406 13.74C63.4606 14.58 62.3446 15 60.8926 15C59.5246 15 58.4326 14.658 57.6166 13.974C56.8006 13.29 56.3386 12.396 56.2306 11.292H58.6786C58.7866 11.772 59.0266 12.156 59.3986 12.444C59.7826 12.732 60.2686 12.876 60.8566 12.876C61.5646 12.876 62.0986 12.654 62.4586 12.21C62.8186 11.766 62.9986 11.178 62.9986 10.446C62.9986 9.702 62.8126 9.138 62.4406 8.754C62.0806 8.358 61.5466 8.16 60.8386 8.16C60.3346 8.16 59.9146 8.286 59.5786 8.538C59.2426 8.79 59.0026 9.126 58.8586 9.546H56.4466V1.842H64.5826V4.056Z" fill="#171100"/>
</svg>
